<svg width="20" height="20" viewBox="0 0 20 20" fill="none" xmlns="http://www.w3.org/2000/svg">
<path fill-rule="evenodd" clip-rule="evenodd" d="M6.09137 0H13.401C16.7647 0 19.4924 2.72772 19.4924 6.09137V13.401C19.4924 16.7647 16.7647 19.4924 13.401 19.4924H6.09137C2.72772 19.4924 0 16.7647 0 13.401V6.09137C0 2.72772 2.72772 0 6.09137 0ZM13.401 17.665C15.7523 17.665 17.665 15.7523 17.665 13.4011V6.09142C17.665 3.74015 15.7523 1.82746 13.401 1.82746H6.09138C3.74011 1.82746 1.82742 3.74015 1.82742 6.09142V13.4011C1.82742 15.7523 3.74011 17.665 6.09138 17.665H13.401Z" fill="white"/>
<path fill-rule="evenodd" clip-rule="evenodd" d="M4.87309 9.74614C4.87309 7.05498 7.05502 4.87305 9.74619 4.87305C12.4374 4.87305 14.6193 7.05498 14.6193 9.74614C14.6193 12.4373 12.4374 14.6192 9.74619 14.6192C7.05502 14.6192 4.87309 12.4373 4.87309 9.74614ZM6.70051 9.74624C6.70051 11.425 8.06742 12.7919 9.7462 12.7919C11.425 12.7919 12.7919 11.425 12.7919 9.74624C12.7919 8.06624 11.425 6.70055 9.7462 6.70055C8.06742 6.70055 6.70051 8.06624 6.70051 9.74624Z" fill="white"/>
<circle cx="14.9855" cy="4.50872" r="0.64934" fill="white"/>
</svg>
