<svg width="19" height="20" viewBox="0 0 19 20" fill="none" xmlns="http://www.w3.org/2000/svg">
<path d="M16.1893 16.6823H13.3739V12.273C13.3739 11.2214 13.3551 9.86838 11.9095 9.86838C10.4433 9.86838 10.2186 11.0135 10.2186 12.1971V16.6823H7.40413V7.61455H10.1072V8.85336H10.1446C10.6961 7.91137 11.7204 7.34862 12.8112 7.38888C15.665 7.38888 16.1902 9.26629 16.1902 11.7074L16.1893 16.6823ZM4.22732 6.3748C3.32474 6.3748 2.59351 5.6435 2.59351 4.74084C2.59351 3.83819 3.32474 3.10689 4.22732 3.10689C5.1299 3.10689 5.86113 3.83819 5.86113 4.74084C5.86113 5.6435 5.1299 6.3748 4.22732 6.3748ZM5.63455 16.6823H2.81634V7.61455H5.63455V16.6823ZM17.5928 0.49256H1.40162C0.636673 0.484132 0.00936283 1.09745 0 1.86246V18.1215C0.00936283 18.8874 0.636673 19.5008 1.40162 19.4923H17.5928C18.3596 19.5017 18.9897 18.8884 19 18.1215V1.86152C18.9888 1.09464 18.3586 0.48226 17.5928 0.49256Z" fill="white"/>
</svg>
